PathFileType	4	(x/y/z)	S09_PSF_T14
DataRate	CameraRate	NumFrames	NumMarkers	Units	OrigDataRate	OrigDataStartFrame	OrigNumFrames
240	240	7	51	mm	240	223	444
Frame#	Time	Sternum			R.Acromium			L.Acromium			Top.Head			R.ASIS			L.ASIS			R.PSIS			L.PSIS			R.Great.Tro			L.Great.Tro			R.Iliac.Crest			L.Iliac.Crest			V.Sacral			R.Thigh.Upper.Post			R.Thigh.Lower.Ant			R.Thigh.Lower.Post			R.Thigh.Upper.Ant			R.Knee.Lat			R.Knee.Med			R.Shank.Upper.Post			R.Shank.Lower.Ant			R.Shank.Lower.Post			R.Shank.Upper.Ant			R.Ankle.Lat			R.Ankle.Med			R.Heel.Upper			R.Heel.Med			R.Heel.Lat			R.Toe.Lat			R.Toe.Med			R.Toe.Tip			L.Thigh.Upper.Post			L.Thigh.Lower.Ant			L.Thigh.Lower.Post			L.Thigh.Upper.Ant			L.Knee.Lat			L.Knee.Med			L.Shank.Upper.Post			L.Shank.Lower.Ant			L.Shank.Lower.Post			L.Shank.Upper.Ant			L.Ankle.Lat			L.Ankle.Med			L.Heel.Upper			L.Heel.Med			L.Heel.Lat			L.Toe.Lat			L.Toe.Med			L.Toe.Tip			Cervical.Spine			Back			
		X1	Y1	Z1	X2	Y2	Z2	X3	Y3	Z3	X4	Y4	Z4	X5	Y5	Z5	X6	Y6	Z6	X7	Y7	Z7	X8	Y8	Z8	X9	Y9	Z9	X10	Y10	Z10	X11	Y11	Z11	X12	Y12	Z12	X13	Y13	Z13	X14	Y14	Z14	X15	Y15	Z15	X16	Y16	Z16	X17	Y17	Z17	X18	Y18	Z18	X19	Y19	Z19	X20	Y20	Z20	X21	Y21	Z21	X22	Y22	Z22	X23	Y23	Z23	X24	Y24	Z24	X25	Y25	Z25	X26	Y26	Z26	X27	Y27	Z27	X28	Y28	Z28	X29	Y29	Z29	X30	Y30	Z30	X31	Y31	Z31	X32	Y32	Z32	X33	Y33	Z33	X34	Y34	Z34	X35	Y35	Z35	X36	Y36	Z36	X37	Y37	Z37	X38	Y38	Z38	X39	Y39	Z39	X40	Y40	Z40	X41	Y41	Z41	X42	Y42	Z42	X43	Y43	Z43	X44	Y44	Z44	X45	Y45	Z45	X46	Y46	Z46	X47	Y47	Z47	X48	Y48	Z48	X49	Y49	Z49	X50	Y50	Z50	X51	Y51	Z51	

223	0.925	-368.33	1202.8	357.7	-499.88	1450.7	516.79	-524.31	1439.6	203.75	-512.59	1750.2	347.08	-400.26	1040	476.77	-425.11	1039.2	232.98	-629.63	1045.4	422.83	-632.6	1042.5	332.72	-471.64	947.81	557.15	-491.45	943.48	169.78	-487.46	1114.3	527.6	-543.53	1120.9	209.26	-647.61	1007	376.53	-480.99	693.6	517.65	-415.43	593.7	466.33	-491.88	604.39	487.68	-411.57	678.92	499.33	-445.02	519.85	458.04	-463.01	518.28	338.03	-537.56	351.59	464.68	-478.07	285.16	444.85	-549.34	276.8	451.18	-472.71	357.71	459.9	-546.53	92.241	423.46	-531.38	113.51	340.91	-614.87	80.917	373.94	-606.87	49.039	344.4	-611.62	50.09	409.7	-450.06	39.974	455.89	-405.56	43.656	346.54	-356.51	58.107	391.78	-446.64	683.08	195.75	-338.95	622.99	172.76	-397.94	605.61	203.6	-385.35	698.45	161.68	-336.37	546.54	179.31	-286.97	553.73	310.47	-423.48	444.27	178.79	-397.44	336.66	179.45	-450.98	372.55	186.1	-369.99	409.33	173.1	-509.55	180.67	207.84	-472.94	166.59	293.34	-576.17	168.18	276.25	-565	139.57	306.08	-591.87	143.24	250.39	-451.22	76.49	156.75	-390.23	63.301	251.58	-352.59	64.599	182.47	-590.22	1493.7	375.78	-632.82	1225.4	376.07
224	0.92917	-363.5	1203.2	357.88	-494.58	1451	516.87	-519.55	1439.8	203.89	-507.37	1750.4	347.15	-396.05	1039.9	477.37	-419.87	1039.5	233.46	-625.16	1045.7	422.23	-627.78	1042.8	332.08	-468	947.72	557.22	-485.87	944.09	169.68	-483.29	1114.3	527.77	-538.29	1121.4	209.24	-642.96	1007.2	375.81	-478.61	693.72	517.64	-413.52	593.48	466.52	-489.92	604.59	487.79	-409.19	678.69	499.46	-443.62	519.7	458.25	-461.53	518.2	338.19	-536.77	351.76	464.75	-477.48	285.22	444.98	-548.76	277.02	451.21	-471.92	357.72	460.04	-546.4	92.336	423.42	-531.14	113.67	340.92	-614.82	81.035	373.88	-606.81	49.12	344.37	-611.57	50.217	409.67	-450.03	39.917	455.9	-405.49	43.61	346.58	-356.44	57.943	391.84	-440.84	683.53	195.9	-332.87	623.71	173.45	-391.94	606.09	204	-379.32	699	162.1	-329.79	546.91	180.18	-281.15	554.76	311.43	-414.91	442.42	179.21	-386.29	335.47	179.81	-440.68	370.06	186.33	-360.58	408.77	173.66	-494.69	176.79	207.51	-457.75	163.29	292.95	-561.08	162.39	275.93	-549.07	133.9	305.6	-576.06	137.08	249.92	-433.74	74.386	155.96	-372.3	62.542	250.74	-334.82	65.03	181.56	-585.2	1493.9	376.03	-627.82	1225.7	376.33
225	0.93333	-358.66	1203.5	358.07	-489.29	1451.3	516.95	-514.79	1440	204.02	-502.15	1750.5	347.22	-391.86	1039.7	477.95	-414.61	1039.8	233.92	-620.68	1045.9	421.6	-622.95	1043.1	331.41	-464.34	947.61	557.26	-480.26	944.62	169.58	-479.11	1114.2	527.93	-532.99	1121.9	209.22	-638.31	1007.5	375.08	-476.22	693.81	517.62	-411.59	593.25	466.68	-487.93	604.77	487.91	-406.8	678.46	499.57	-442.19	519.54	458.44	-460.03	518.11	338.34	-535.96	351.94	464.8	-476.88	285.28	445.1	-548.16	277.24	451.23	-471.12	357.72	460.18	-546.27	92.433	423.38	-530.89	113.84	340.91	-614.77	81.146	373.81	-606.73	49.191	344.35	-611.52	50.342	409.63	-449.99	39.858	455.9	-405.42	43.562	346.63	-356.36	57.775	391.91	-435.14	683.89	196.11	-326.92	624.29	174.19	-386.05	606.46	204.45	-373.37	699.44	162.56	-323.37	547.18	181.08	-275.47	555.66	312.42	-406.4	440.5	179.68	-375.18	334.3	180.16	-430.39	367.53	186.59	-351.27	408.19	174.23	-479.73	172.95	207.2	-442.44	160.05	292.55	-545.78	156.66	275.62	-532.94	128.32	305.15	-560.05	130.99	249.47	-416.22	72.378	155.18	-354.33	61.919	249.9	-317.07	65.573	180.63	-580.15	1494.1	376.26	-622.81	1225.8	376.57
226	0.9375	-353.82	1203.7	358.26	-484.01	1451.5	517.03	-510.02	1440.1	204.15	-496.95	1750.6	347.29	-387.66	1039.4	478.51	-409.33	1040	234.36	-616.21	1046.1	420.95	-618.09	1043.3	330.73	-460.68	947.47	557.28	-474.64	945.09	169.48	-474.93	1114.1	528.07	-527.64	1122.4	209.18	-633.65	1007.7	374.32	-473.8	693.89	517.6	-409.65	593.01	466.83	-485.92	604.93	488.02	-404.4	678.22	499.68	-440.74	519.37	458.62	-458.51	518.02	338.47	-535.13	352.11	464.84	-476.27	285.33	445.21	-547.55	277.45	451.25	-470.3	357.73	460.31	-546.14	92.532	423.33	-530.63	113.99	340.9	-614.72	81.25	373.74	-606.63	49.252	344.33	-611.48	50.464	409.58	-449.96	39.798	455.9	-405.35	43.51	346.67	-356.27	57.604	391.97	-429.54	684.17	196.38	-321.08	624.74	174.99	-380.26	606.72	204.95	-367.5	699.77	163.04	-317.1	547.35	182.01	-269.91	556.43	313.44	-397.96	438.52	180.2	-364.12	333.13	180.53	-420.13	364.97	186.89	-342.04	407.58	174.82	-464.65	169.17	206.89	-427.01	156.89	292.16	-530.29	151.01	275.34	-516.61	122.85	304.72	-543.83	124.98	249.05	-398.67	70.486	154.41	-336.32	61.445	249.06	-299.34	66.245	179.7	-575.09	1494.2	376.48	-617.81	1226	376.8
227	0.94167	-348.96	1203.9	358.46	-478.74	1451.7	517.12	-505.24	1440.1	204.27	-491.74	1750.6	347.35	-383.46	1039.1	479.04	-404.05	1040.1	234.77	-611.72	1046.3	420.28	-613.21	1043.5	330.02	-457.01	947.31	557.28	-469.01	945.48	169.39	-470.74	1113.9	528.2	-522.23	1122.8	209.13	-628.99	1007.9	373.54	-471.35	693.96	517.57	-407.69	592.76	466.96	-483.88	605.07	488.13	-401.99	677.97	499.78	-439.26	519.19	458.78	-456.96	517.91	338.59	-534.29	352.27	464.87	-475.65	285.39	445.31	-546.92	277.66	451.25	-469.47	357.73	460.43	-546	92.633	423.27	-530.37	114.14	340.88	-614.66	81.344	373.66	-606.5	49.305	344.31	-611.43	50.583	409.54	-449.92	39.736	455.9	-405.29	43.456	346.71	-356.19	57.431	392.04	-424.04	684.35	196.7	-315.35	625.04	175.84	-374.59	606.87	205.5	-361.71	699.99	163.56	-310.98	547.41	182.97	-264.49	557.07	314.49	-389.59	436.48	180.77	-353.1	331.99	180.89	-409.9	362.39	187.22	-332.91	406.96	175.42	-449.47	165.46	206.59	-411.47	153.83	291.77	-514.6	145.44	275.07	-500.1	117.5	304.32	-527.43	119.08	248.67	-381.08	68.726	153.66	-318.28	61.134	248.23	-281.63	67.064	178.76	-570.01	1494.3	376.69	-612.81	1226.1	377
228	0.94583	-344.09	1204.1	358.66	-473.46	1451.8	517.2	-500.45	1440.1	204.38	-486.55	1750.6	347.42	-379.27	1038.8	479.53	-398.77	1040.2	235.15	-607.23	1046.4	419.59	-608.31	1043.7	329.3	-453.32	947.13	557.27	-463.38	945.78	169.28	-466.53	1113.7	528.31	-516.78	1123.2	209.07	-624.33	1008.1	372.75	-468.87	694	517.55	-405.71	592.5	467.06	-481.81	605.2	488.24	-399.56	677.71	499.86	-437.75	519	458.94	-455.38	517.8	338.69	-533.43	352.44	464.88	-475.02	285.43	445.4	-546.28	277.88	451.25	-468.62	357.72	460.54	-545.86	92.736	423.2	-530.1	114.29	340.85	-614.6	81.431	373.57	-606.35	49.349	344.3	-611.38	50.701	409.49	-449.88	39.673	455.89	-405.23	43.399	346.75	-356.1	57.255	392.11	-418.64	684.44	197.08	-309.73	625.21	176.74	-369.02	606.9	206.1	-356.01	700.09	164.1	-305.02	547.38	183.96	-259.2	557.59	315.57	-381.28	434.39	181.38	-342.15	330.87	181.26	-399.69	359.8	187.6	-323.87	406.32	176.03	-434.2	161.85	206.31	-395.84	150.88	291.38	-498.73	139.98	274.83	-483.41	112.3	303.95	-510.84	113.29	248.3	-363.45	67.117	152.94	-300.23	61	247.41	-263.95	68.047	177.84	-564.91	1494.3	376.89	-607.81	1226.1	377.18
229	0.95	-339.22	1204.2	358.87	-468.2	1451.9	517.28	-495.63	1440.1	204.48	-481.36	1750.6	347.48	-375.06	1038.4	479.99	-393.48	1040.2	235.5	-602.73	1046.6	418.89	-603.4	1043.8	328.56	-449.63	946.92	557.23	-457.77	946.01	169.18	-462.3	1113.4	528.4	-511.28	1123.5	209	-619.66	1008.3	371.95	-466.36	694.03	517.54	-403.71	592.23	467.14	-479.72	605.3	488.34	-397.11	677.44	499.94	-436.21	518.8	459.08	-453.76	517.68	338.78	-532.56	352.6	464.88	-474.37	285.47	445.48	-545.62	278.09	451.23	-467.75	357.71	460.64	-545.72	92.842	423.13	-529.83	114.43	340.81	-614.54	81.509	373.48	-606.19	49.386	344.28	-611.34	50.817	409.43	-449.85	39.609	455.88	-405.18	43.339	346.79	-356	57.076	392.18	-413.33	684.43	197.49	-304.23	625.25	177.68	-363.56	606.83	206.75	-350.39	700.08	164.66	-299.2	547.24	184.96	-254.04	557.98	316.69	-373.03	432.25	182.05	-331.25	329.78	181.64	-389.51	357.2	188.01	-314.93	405.67	176.66	-418.84	158.34	206.04	-380.12	148.07	291.01	-482.67	134.63	274.61	-466.55	107.24	303.6	-494.08	107.64	247.97	-345.8	65.676	152.24	-282.18	61.058	246.61	-246.32	69.212	176.94	-559.8	1494.4	377.08	-602.82	1226.1	377.34
